0
SECTION
2
HEADER
9
$ACADVER
1
AC1009
9
$INSUNITS
70
6
0
ENDSEC
0
SECTION
2
TABLES
0
TABLE
2
LAYER
70
7
0
LAYER
2
EJE_VIA
70
0
62
1
6
CONTINUOUS
0
LAYER
2
SARDINEL
70
0
62
3
6
CONTINUOUS
0
LAYER
2
VEREDA
70
0
62
8
6
CONTINUOUS
0
LAYER
2
COTAS_PROY
70
0
62
2
6
CONTINUOUS
0
LAYER
2
TEXTO
70
0
62
7
6
CONTINUOUS
0
LAYER
2
LOTES
70
0
62
4
6
CONTINUOUS
0
LAYER
2
CURVAS_NIVEL
70
0
62
252
6
CONTINUOUS
0
ENDTAB
0
ENDSEC
0
SECTION
2
BLOCKS
0
BLOCK
8
0
2
ESTACA
70
0
10
0
20
0
30
0
3
ESTACA
0
CIRCLE
8
0
10
0
20
0
30
0
40
0.25
0
ENDBLK
8
0
0
ENDSEC
0
SECTION
2
ENTITIES
0
POLYLINE
8
EJE_VIA
66
1
10
0
20
0
30
0
70
0
0
VERTEX
8
EJE_VIA
10
1000
20
2000
30
0
0
VERTEX
8
EJE_VIA
10
1200
20
2000
30
0
0
SEQEND
8
EJE_VIA
0
POLYLINE
8
SARDINEL
66
1
10
0
20
0
30
0
70
0
0
VERTEX
8
SARDINEL
10
1000
20
2003.6
30
0
0
VERTEX
8
SARDINEL
10
1200
20
2003.6
30
0
0
SEQEND
8
SARDINEL
0
POLYLINE
8
VEREDA
66
1
10
0
20
0
30
0
70
0
0
VERTEX
8
VEREDA
10
1000
20
2005.6
30
0
0
VERTEX
8
VEREDA
10
1200
20
2005.6
30
0
0
SEQEND
8
VEREDA
0
POLYLINE
8
SARDINEL
66
1
10
0
20
0
30
0
70
0
0
VERTEX
8
SARDINEL
10
1000
20
1996.4
30
0
0
VERTEX
8
SARDINEL
10
1200
20
1996.4
30
0
0
SEQEND
8
SARDINEL
0
POLYLINE
8
VEREDA
66
1
10
0
20
0
30
0
70
0
0
VERTEX
8
VEREDA
10
1000
20
1994.4
30
0
0
VERTEX
8
VEREDA
10
1200
20
1994.4
30
0
0
SEQEND
8
VEREDA
0
TEXT
8
COTAS_PROY
10
1000.0001
20
2001
30
0
40
1
1
3244.400
0
TEXT
8
TEXTO
10
1000
20
1999
30
0
40
1
1
0+000
0
TEXT
8
COTAS_PROY
10
1100
20
2001
30
0
40
1
1
3243.900
0
TEXT
8
TEXTO
10
1100
20
1999
30
0
40
1
1
0+100
0
TEXT
8
COTAS_PROY
10
1199.9999
20
2001
30
0
40
1
1
3244.100
0
TEXT
8
TEXTO
10
1200
20
1999
30
0
40
1
1
0+200
0
TEXT
8
TEXTO
10
1032
20
2002
30
0
40
1.5
1
JR. LIMA
0
POLYLINE
8
EJE_VIA
66
1
10
0
20
0
30
0
70
0
0
VERTEX
8
EJE_VIA
10
1060
20
2000
30
0
0
VERTEX
8
EJE_VIA
10
1060
20
2120
30
0
0
SEQEND
8
EJE_VIA
0
POLYLINE
8
SARDINEL
66
1
10
0
20
0
30
0
70
0
0
VERTEX
8
SARDINEL
10
1056.4
20
2000
30
0
0
VERTEX
8
SARDINEL
10
1056.4
20
2120
30
0
0
SEQEND
8
SARDINEL
0
POLYLINE
8
VEREDA
66
1
10
0
20
0
30
0
70
0
0
VERTEX
8
VEREDA
10
1054.4
20
2000
30
0
0
VERTEX
8
VEREDA
10
1054.4
20
2120
30
0
0
SEQEND
8
VEREDA
0
POLYLINE
8
SARDINEL
66
1
10
0
20
0
30
0
70
0
0
VERTEX
8
SARDINEL
10
1063.6
20
2000
30
0
0
VERTEX
8
SARDINEL
10
1063.6
20
2120
30
0
0
SEQEND
8
SARDINEL
0
POLYLINE
8
VEREDA
66
1
10
0
20
0
30
0
70
0
0
VERTEX
8
VEREDA
10
1065.6
20
2000
30
0
0
VERTEX
8
VEREDA
10
1065.6
20
2120
30
0
0
SEQEND
8
VEREDA
0
TEXT
8
COTAS_PROY
10
1060
20
2000.0001
30
0
40
1
1
NTN 3244.100
0
TEXT
8
TEXTO
10
1061
20
2000
30
0
40
1
1
0+000
0
TEXT
8
COTAS_PROY
10
1059
20
2119.9999
30
0
40
1
1
NTN 3243.680
0
TEXT
8
TEXTO
10
1061
20
2120
30
0
40
1
1
0+120
0
TEXT
8
TEXTO
10
1062
20
2032
30
0
40
1.5
1
AV. SOL
0
POLYLINE
8
EJE_VIA
66
1
10
0
20
0
30
0
70
0
0
VERTEX
8
EJE_VIA
10
1150
20
2000
30
0
0
VERTEX
8
EJE_VIA
10
1150
20
1940
30
0
0
VERTEX
8
EJE_VIA
10
1186
20
1892
30
0
0
SEQEND
8
EJE_VIA
0
POLYLINE
8
SARDINEL
66
1
10
0
20
0
30
0
70
0
0
VERTEX
8
SARDINEL
10
1153.6
20
2000
30
0
0
VERTEX
8
SARDINEL
10
1153.6
20
1941.2
30
0
0
VERTEX
8
SARDINEL
10
1188.88
20
1894.16
30
0
0
SEQEND
8
SARDINEL
0
POLYLINE
8
VEREDA
66
1
10
0
20
0
30
0
70
0
0
VERTEX
8
VEREDA
10
1155.6
20
2000
30
0
0
VERTEX
8
VEREDA
10
1155.6
20
1941.8667
30
0
0
VERTEX
8
VEREDA
10
1190.48
20
1895.36
30
0
0
SEQEND
8
VEREDA
0
POLYLINE
8
SARDINEL
66
1
10
0
20
0
30
0
70
0
0
VERTEX
8
SARDINEL
10
1146.4
20
2000
30
0
0
VERTEX
8
SARDINEL
10
1146.4
20
1938.8
30
0
0
VERTEX
8
SARDINEL
10
1183.12
20
1889.84
30
0
0
SEQEND
8
SARDINEL
0
POLYLINE
8
VEREDA
66
1
10
0
20
0
30
0
70
0
0
VERTEX
8
VEREDA
10
1144.4
20
2000
30
0
0
VERTEX
8
VEREDA
10
1144.4
20
1938.1333
30
0
0
VERTEX
8
VEREDA
10
1181.52
20
1888.64
30
0
0
SEQEND
8
VEREDA
0
TEXT
8
COTAS_PROY
10
1150
20
1999.9999
30
0
40
1
1
+3244.000
0
TEXT
8
TEXTO
10
1149
20
2000
30
0
40
1
1
0+000
0
TEXT
8
COTAS_PROY
10
1149.0513
20
1939.6838
30
0
40
1
1
3248,420
0
TEXT
8
TEXTO
10
1150.9487
20
1940.3162
30
0
40
1
1
0+060
0
TEXT
8
COTAS_PROY
10
1186.7999
20
1892.6001
30
0
40
1
1
3252.860
0
TEXT
8
TEXTO
10
1185.2
20
1891.4
30
0
40
1
1
0+120
0
TEXT
8
TEXTO
10
1152
20
1972
30
0
40
1.5
1
PSJE. LAS LOMAS
0
POLYLINE
8
LOTES
66
1
10
0
20
0
30
0
70
1
0
VERTEX
8
LOTES
10
1006
20
2006
30
0
0
VERTEX
8
LOTES
10
1054
20
2006
30
0
0
VERTEX
8
LOTES
10
1054
20
2060
30
0
0
VERTEX
8
LOTES
10
1006
20
2060
30
0
0
SEQEND
8
LOTES
0
LINE
8
LOTES
10
1022
20
2006
30
0
11
1022
21
2060
31
0
0
TEXT
8
TEXTO
10
1014
20
2033
30
0
40
1
1
1
0
LINE
8
LOTES
10
1038
20
2006
30
0
11
1038
21
2060
31
0
0
TEXT
8
TEXTO
10
1030
20
2033
30
0
40
1
1
2
0
TEXT
8
TEXTO
10
1030
20
2056
30
0
40
2
1
MZ A
0
POLYLINE
8
LOTES
66
1
10
0
20
0
30
0
70
1
0
VERTEX
8
LOTES
10
1066
20
2006
30
0
0
VERTEX
8
LOTES
10
1140
20
2006
30
0
0
VERTEX
8
LOTES
10
1140
20
2060
30
0
0
VERTEX
8
LOTES
10
1066
20
2060
30
0
0
SEQEND
8
LOTES
0
LINE
8
LOTES
10
1090
20
2006
30
0
11
1090
21
2060
31
0
0
TEXT
8
TEXTO
10
1082
20
2033
30
0
40
1
1
1
0
LINE
8
LOTES
10
1115
20
2006
30
0
11
1115
21
2060
31
0
0
TEXT
8
TEXTO
10
1107
20
2033
30
0
40
1
1
2
0
TEXT
8
TEXTO
10
1103
20
2056
30
0
40
2
1
MZ B
0
POLYLINE
8
LOTES
66
1
10
0
20
0
30
0
70
1
0
VERTEX
8
LOTES
10
1006
20
1950
30
0
0
VERTEX
8
LOTES
10
1144
20
1950
30
0
0
VERTEX
8
LOTES
10
1144
20
1994
30
0
0
VERTEX
8
LOTES
10
1006
20
1994
30
0
0
SEQEND
8
LOTES
0
LINE
8
LOTES
10
1050
20
1950
30
0
11
1050
21
1994
31
0
0
TEXT
8
TEXTO
10
1042
20
1972
30
0
40
1
1
1
0
LINE
8
LOTES
10
1100
20
1950
30
0
11
1100
21
1994
31
0
0
TEXT
8
TEXTO
10
1092
20
1972
30
0
40
1
1
2
0
TEXT
8
TEXTO
10
1075
20
1990
30
0
40
2
1
MZ C
0
CIRCLE
8
LOTES
10
1100
20
2004.6
30
0
40
0.15
0
HATCH
8
LOTES
10
0
20
0
30
0
2
SOLID
70
1
71
0
91
0
75
0
76
1
98
0
0
INSERT
8
TEXTO
2
ESTACA
10
1000
20
2000
30
0
0
POLYLINE
8
CURVAS_NIVEL
66
1
10
0
20
0
30
3244
70
0
0
VERTEX
8
CURVAS_NIVEL
10
1120
20
1994
30
3244
0
VERTEX
8
CURVAS_NIVEL
10
1170
20
1991
30
3244
0
VERTEX
8
CURVAS_NIVEL
10
1220
20
1996
30
3244
0
SEQEND
8
CURVAS_NIVEL
0
POLYLINE
8
CURVAS_NIVEL
66
1
10
0
20
0
30
3246
70
0
0
VERTEX
8
CURVAS_NIVEL
10
1120
20
1970
30
3246
0
VERTEX
8
CURVAS_NIVEL
10
1170
20
1967
30
3246
0
VERTEX
8
CURVAS_NIVEL
10
1220
20
1972
30
3246
0
SEQEND
8
CURVAS_NIVEL
0
POLYLINE
8
CURVAS_NIVEL
66
1
10
0
20
0
30
3248
70
0
0
VERTEX
8
CURVAS_NIVEL
10
1120
20
1945
30
3248
0
VERTEX
8
CURVAS_NIVEL
10
1170
20
1942
30
3248
0
VERTEX
8
CURVAS_NIVEL
10
1220
20
1947
30
3248
0
SEQEND
8
CURVAS_NIVEL
0
POLYLINE
8
CURVAS_NIVEL
66
1
10
0
20
0
30
3250
70
0
0
VERTEX
8
CURVAS_NIVEL
10
1120
20
1920
30
3250
0
VERTEX
8
CURVAS_NIVEL
10
1170
20
1917
30
3250
0
VERTEX
8
CURVAS_NIVEL
10
1220
20
1922
30
3250
0
SEQEND
8
CURVAS_NIVEL
0
POLYLINE
8
CURVAS_NIVEL
66
1
10
0
20
0
30
3252
70
0
0
VERTEX
8
CURVAS_NIVEL
10
1120
20
1900
30
3252
0
VERTEX
8
CURVAS_NIVEL
10
1170
20
1897
30
3252
0
VERTEX
8
CURVAS_NIVEL
10
1220
20
1902
30
3252
0
SEQEND
8
CURVAS_NIVEL
0
ARC
8
CURVAS_NIVEL
10
1250
20
1900
30
0
40
40
50
90
51
180
0
ENDSEC
0
EOF
